<svg xmlns="http://www.w3.org/2000/svg" xmlns:xlink="http://www.w3.org/1999/xlink" viewBox="0 0 100 100" version="1.1" x="0px" y="0px"><title>Full Screen Filled</title><desc>Created with Sketch.</desc><g stroke="none" stroke-width="1" fill="none" fill-rule="evenodd"><g fill="#000000"><path d="M85.99638,6 C90.4166573,6 94,9.58618247 94,14.00362 L94,85.99638 C94,90.4166573 90.4138175,94 85.99638,94 L14.00362,94 C9.58334272,94 6,90.4138175 6,85.99638 L6,14.00362 C6,9.58334272 9.58618247,6 14.00362,6 L85.99638,6 L85.99638,6 Z M57.5511454,79.5927759 L79.7695526,79.7695526 L79.5927759,57.5511454 L71.5199735,57.4922198 L71.5962301,65.9393759 L58.6568542,53 L53,58.6568542 L65.9393759,71.5962301 L57.4922198,71.5199735 L57.5511454,79.5927759 L57.5511454,79.5927759 Z M42.2184073,20.1767767 L20,20 L20.1767767,42.2184073 L28.2495791,42.2773328 L28.1733225,33.8301767 L41.1126984,46.7695526 L46.7695526,41.1126984 L33.8301767,28.1733225 L42.2773328,28.2495791 L42.2184073,20.1767767 L42.2184073,20.1767767 Z"></path></g></g></svg>